<svg width="14" height="15" viewBox="0 0 14 15" fill="none" xmlns="http://www.w3.org/2000/svg">
<g clip-path="url(#clip0_240_273)">
<path fill-rule="evenodd" clip-rule="evenodd" d="M2 6.5C2 4.29086 3.79086 2.5 6 2.5C8.20914 2.5 10 4.29086 10 6.5C10 8.70914 8.20914 10.5 6 10.5C3.79086 10.5 2 8.70914 2 6.5ZM6 0.5C2.68629 0.5 0 3.18629 0 6.5C0 9.81371 2.68629 12.5 6 12.5C7.29578 12.5 8.49562 12.0892 9.47642 11.3908L12.2929 14.2073C12.6834 14.5978 13.3166 14.5978 13.7071 14.2073C14.0976 13.8168 14.0976 13.1836 13.7071 12.7931L10.8907 9.97665C11.5892 8.99581 12 7.79588 12 6.5C12 3.18629 9.31371 0.5 6 0.5Z" fill="white"/>
</g>
<defs>
<clipPath id="clip0_240_273">
<rect width="14" height="14" fill="white" transform="translate(0 0.5)"/>
</clipPath>
</defs>
</svg>
