<svg width="21" height="21" viewBox="0 0 21 21" fill="none" xmlns="http://www.w3.org/2000/svg">
<g clip-path="url(#clip0_240_268)">
<path fill-rule="evenodd" clip-rule="evenodd" d="M2.96074 2.21911C2.77074 2.28828 2.62157 2.41411 2.51657 2.59245L2.42407 2.74995V5.91661V9.08328L2.51657 9.24078C2.56741 9.32661 2.65824 9.43578 2.71907 9.48161C2.96991 9.67328 2.84991 9.66661 6.15574 9.66661C9.57741 9.66661 9.39657 9.67911 9.65824 9.41745C9.91991 9.15578 9.9074 9.33661 9.9074 5.91661C9.9074 2.49661 9.91991 2.67745 9.65824 2.41578C9.39574 2.15328 9.57907 2.16661 6.14324 2.16911C3.58074 2.17078 3.06991 2.17911 2.96074 2.21911ZM12.1274 2.21911C11.9374 2.28828 11.7882 2.41411 11.6832 2.59245L11.5907 2.74995V5.91661V9.08328L11.6832 9.24078C11.7341 9.32661 11.8249 9.43578 11.8857 9.48161C12.1366 9.67328 12.0166 9.66661 15.3224 9.66661C18.7441 9.66661 18.5632 9.67911 18.8249 9.41745C19.0866 9.15578 19.0741 9.33661 19.0741 5.91661C19.0741 2.49661 19.0866 2.67745 18.8249 2.41578C18.5624 2.15328 18.7457 2.16661 15.3099 2.16911C12.7474 2.17078 12.2366 2.17911 12.1274 2.21911ZM8.24074 5.91661V7.99995H6.15741H4.07407V5.91661V3.83328H6.15741H8.24074V5.91661ZM17.4074 5.91661V7.99995H15.3241H13.2407V5.91661V3.83328H15.3241H17.4074V5.91661ZM2.96074 11.3858C2.77074 11.4549 2.62157 11.5808 2.51657 11.7591L2.42407 11.9166V15.0833V18.2499L2.51657 18.4074C2.56741 18.4933 2.65824 18.6024 2.71907 18.6483C2.96991 18.8399 2.84991 18.8333 6.15574 18.8333C9.57741 18.8333 9.39657 18.8458 9.65824 18.5841C9.91991 18.3224 9.9074 18.5033 9.9074 15.0833C9.9074 11.6633 9.91991 11.8441 9.65824 11.5824C9.39574 11.3199 9.57907 11.3333 6.14324 11.3358C3.58074 11.3374 3.06991 11.3458 2.96074 11.3858ZM15.1074 11.3624C14.8582 11.4441 14.6524 11.6249 14.5507 11.8499C14.4974 11.9683 14.4899 12.1108 14.4807 13.1249L14.4699 14.2666H13.3374C12.0949 14.2666 12.0891 14.2674 11.8582 14.4708C11.4941 14.7899 11.4882 15.3516 11.8449 15.6899C12.0782 15.9116 12.1049 15.9158 13.3474 15.9266L14.4699 15.9374L14.4807 17.0599C14.4899 18.0558 14.4974 18.1983 14.5507 18.3166C14.6841 18.6133 15.0132 18.8324 15.3241 18.8324C15.6349 18.8324 15.9641 18.6133 16.0974 18.3166C16.1507 18.1983 16.1582 18.0558 16.1674 17.0599L16.1782 15.9374L17.3007 15.9266C18.5432 15.9158 18.5699 15.9116 18.8032 15.6899C19.1599 15.3516 19.1541 14.7899 18.7899 14.4708C18.5591 14.2674 18.5532 14.2666 17.3107 14.2666H16.1782L16.1674 13.1249C16.1582 12.1108 16.1507 11.9683 16.0974 11.8499C16.0216 11.6808 15.8616 11.5133 15.6932 11.4266C15.5499 11.3533 15.2399 11.3191 15.1074 11.3624ZM8.24074 15.0833V17.1666H6.15741H4.07407V15.0833V12.9999H6.15741H8.24074V15.0833Z" fill="white"/>
</g>
<defs>
<clipPath id="clip0_240_268">
<rect width="20" height="20" fill="white" transform="translate(0.740723 0.5)"/>
</clipPath>
</defs>
</svg>
