<svg width="14" height="15" viewBox="0 0 14 15" fill="none" xmlns="http://www.w3.org/2000/svg">
<path fill-rule="evenodd" clip-rule="evenodd" d="M2 2.99951C2 3.5518 1.55228 3.99951 1 3.99951C0.447715 3.99951 0 3.5518 0 2.99951C0 2.44723 0.447715 1.99951 1 1.99951C1.55228 1.99951 2 2.44723 2 2.99951ZM1 8.5C1.55228 8.5 2 8.05228 2 7.5C2 6.94772 1.55228 6.5 1 6.5C0.447715 6.5 0 6.94772 0 7.5C0 8.05228 0.447715 8.5 1 8.5ZM1 13.0005C1.55228 13.0005 2 12.5528 2 12.0005C2 11.4482 1.55228 11.0005 1 11.0005C0.447715 11.0005 0 11.4482 0 12.0005C0 12.5528 0.447715 13.0005 1 13.0005ZM4.75 2.25C4.33579 2.25 4 2.58579 4 3C4 3.41421 4.33579 3.75 4.75 3.75H13.25C13.6642 3.75 14 3.41421 14 3C14 2.58579 13.6642 2.25 13.25 2.25H4.75ZM4 7.5C4 7.08579 4.33579 6.75 4.75 6.75H13.25C13.6642 6.75 14 7.08579 14 7.5C14 7.91421 13.6642 8.25 13.25 8.25H4.75C4.33579 8.25 4 7.91421 4 7.5ZM4.75 11.25C4.33579 11.25 4 11.5858 4 12C4 12.4142 4.33579 12.75 4.75 12.75H13.25C13.6642 12.75 14 12.4142 14 12C14 11.5858 13.6642 11.25 13.25 11.25H4.75Z" fill="white"/>
</svg>
